<svg id="SvgjsSvg1001" width="37.37" height="37.37" xmlns="http://www.w3.org/2000/svg" version="1.1" xmlns:xlink="http://www.w3.org/1999/xlink" xmlns:svgjs="http://svgjs.com/svgjs"><defs id="SvgjsDefs1002"></defs><g id="SvgjsG1008" transform="matrix(1,0,0,1,0,0)"><svg xmlns="http://www.w3.org/2000/svg" width="37.37" height="37.37" viewBox="0 0 37.37 37.37"><g transform="translate(-555.862 -5167.002)" fill="#767fad" class="color000 svgShape"><path fill="#294767" d="M18.685,0A18.685,18.685,0,1,1,0,18.685,18.685,18.685,0,0,1,18.685,0Z" transform="translate(555.862 5167.002)" class="color7175d8 svgShape"></path><g transform="translate(563.501 5174.614)" fill="#767fad" class="color000 svgShape"><path fill="#ffffff" d="M833.3,161.753a1.3,1.3,0,1,0,1.3,1.3A1.295,1.295,0,0,0,833.3,161.753Z" transform="translate(-816.401 -157.808)" class="colorfff svgShape"></path><path fill="#ffffff" d="M828.142,163.312a5.441,5.441,0,1,0,5.442,5.442A5.448,5.448,0,0,0,828.142,163.312Zm0,8.927a3.485,3.485,0,1,1,3.485-3.485A3.489,3.489,0,0,1,828.142,172.239Z" transform="translate(-817.006 -157.706)" class="colorfff svgShape"></path><path fill="#ffffff" d="M832.811,180.142H823.99a6.644,6.644,0,0,1-6.636-6.637v-8.82a6.644,6.644,0,0,1,6.636-6.637h8.821a6.644,6.644,0,0,1,6.636,6.637v8.82A6.644,6.644,0,0,1,832.811,180.142Zm-8.821-20.014a4.563,4.563,0,0,0-4.558,4.558v8.82a4.564,4.564,0,0,0,4.558,4.559h8.821a4.564,4.564,0,0,0,4.557-4.559v-8.82a4.563,4.563,0,0,0-4.557-4.558Z" transform="translate(-817.354 -158.049)" class="colorfff svgShape"></path></g></g></svg></g></svg>