<svg xmlns="http://www.w3.org/2000/svg" xmlns:xlink="http://www.w3.org/1999/xlink" width="166" height="167.083" viewBox="0 0 166 167.083"><defs><style>.a{fill:none;}.b{fill:#39927e;}.b,.c,.f,.j{isolation:isolate;}.c{fill:#5aad95;}.d{fill:#fbc56d;}.e{fill:#fff;}.f{fill:#fdd900;}.g{fill:#a6e7f0;}.h{fill:#efedef;}.i{fill:#e5e1e5;}.j{fill:#e8c205;}.k{fill:#dcf5f8;}.l{clip-path:url(#a);}</style><clipPath id="a"><rect class="a" width="155.083" height="155.083"/></clipPath></defs><g transform="translate(-2641 1163)"><rect class="a" width="166" height="167" transform="translate(2641 -1163)"/><g transform="translate(2646 -1151)"><rect class="b" width="22.198" height="91.177" transform="translate(112.507 56.645)"/><path class="c" d="M2744.418,400.682H2716.97v91.177h11.3V431.721a5.373,5.373,0,0,1,5.372-5.372h10.78Zm0,0" transform="translate(-2609.713 -344.037)"/><path class="b" d="M2635.886,483.826h-7.729l-7.042,5.02c-.613-.5-1.735,4.223-1.735,4.223v40.754l1.735,7.459,22.956.142V492.05Zm0,0" transform="translate(-2551.536 -393.603)"/><path class="b" d="M2532.936,528.112h-10l-3.911,3.174-2.562,2.739v29.357l2.562,4.444h21.52V536.1Zm0,0" transform="translate(-2490.185 -420.003)"/><path class="d" d="M2540.071,606.1h-8.577v-9.491a4.289,4.289,0,0,1,8.577,0Zm0,0" transform="translate(-2499.144 -458.284)"/><path class="d" d="M2644.491,606.1h-8.576v-9.491a4.288,4.288,0,1,1,8.576,0Zm0,0" transform="translate(-2561.393 -458.284)"/><path class="e" d="M2724.1,292.186l-15.68,12.234-2.508,3.141v40.451l2.508,7.6h36.65a1.52,1.52,0,0,0,1.521-1.521v-45.42Zm0,0" transform="translate(-2603.123 -279.359)"/><path class="f" d="M2748.327,427.371h-11.021v-9.3a5.51,5.51,0,0,1,11.021,0Zm0,0" transform="translate(-2621.836 -351.121)"/><path class="g" d="M2733.714,369.533h-9.333a2.343,2.343,0,0,0-2.344,2.341v5.175a2.343,2.343,0,0,0,2.344,2.343h9.333l2.945-2.135v-5.894Zm0,0" transform="translate(-2612.734 -325.468)"/><path class="h" d="M2717.751,292.186l-17.585,13.722v6.543l-4.906,4.034v37.6a1.521,1.521,0,0,0,1.521,1.521h9.942a1.522,1.522,0,0,1-1.521-1.521v-34.27a3.253,3.253,0,0,1,1.133-2.466l10.376-8.918a1.6,1.6,0,0,1,2.083,0l18.456,15.864a7.818,7.818,0,0,0,2.994,1.6V308.667Zm0,0" transform="translate(-2596.771 -279.359)"/><path class="h" d="M2695.259,314.313l21.152-19.541,22.809,19.541Zm0,0" transform="translate(-2596.771 -280.9)"/><path class="i" d="M2716.709,309.977a1.6,1.6,0,0,1,2.084,0l5.043,4.337h15.383l-22.809-19.541-21.152,19.541h16.407Zm0,0" transform="translate(-2596.771 -280.9)"/><path class="c" d="M2640,502.385V492.05l-8.185-8.224h-7.728l-11.537,8.224v49.2l27.45.169v-.05l-19.229-.12V509.307a6.924,6.924,0,0,1,6.924-6.924H2640Zm0,0" transform="translate(-2547.463 -393.603)"/><path class="f" d="M2621.6,463.312l16.587,19.956a.391.391,0,0,1-.3.642h-33.893a.391.391,0,0,1-.3-.642l16.586-19.956a.862.862,0,0,1,1.319,0Zm0,0" transform="translate(-2542.131 -381.191)"/><path class="j" d="M2636.016,480.657h-14.763a3.836,3.836,0,0,1-2.95-6.288l6.242-7.511-2.947-3.546a.863.863,0,0,0-1.319,0l-16.588,19.956a.392.392,0,0,0,.3.642h33.893a.391.391,0,0,0,.3-.642Zm0,0" transform="translate(-2542.13 -381.191)"/><path class="c" d="M2516.375,567.824h-.027v-15.6a6.8,6.8,0,0,1,6.8-6.8h12.43V536.1l-7.612-7.99h-10l-9.841,7.99v31.723h8.249Zm0,0" transform="translate(-2485.213 -420.003)"/><path class="f" d="M2518.526,507.023l15.662,18.844a.454.454,0,0,1-.348.745H2501.9a.454.454,0,0,1-.349-.745l15.663-18.844a.855.855,0,0,1,1.315,0Zm0,0" transform="translate(-2481.229 -407.247)"/><path class="j" d="M2532.205,523.48h-12.467a4.358,4.358,0,0,1-3.351-7.145l4.939-5.944-2.8-3.368a.855.855,0,0,0-1.315,0l-15.663,18.844a.453.453,0,0,0,.349.743h31.943a.453.453,0,0,0,.348-.743Zm0,0" transform="translate(-2481.229 -407.247)"/><path class="k" d="M2762.628,371.874v5.175a2.344,2.344,0,0,1-2.345,2.343h-9.333v-9.859h9.333a2.343,2.343,0,0,1,2.345,2.341Zm0,0" transform="translate(-2629.971 -325.468)"/><g transform="translate(0 0)"><g class="l"><path class="f" d="M2730.128,315l-23.449-20.156L2683.23,315a1.767,1.767,0,0,1-2.492-.188l-3.622-4.214a1.767,1.767,0,0,1,.188-2.494l26.412-22.7a4.546,4.546,0,0,1,5.928,0l26.412,22.7a1.769,1.769,0,0,1,.189,2.494l-3.622,4.214a1.769,1.769,0,0,1-2.494.188Zm0,0" transform="translate(-2585.699 -274.66)"/><path d="M2605.849,406.638l-5.327-5.327a2.274,2.274,0,0,0-3.215,3.215l1.447,1.447h-10.26V374.641a2.273,2.273,0,0,0-4.547,0v31.331h-22.9V338.948h22.9v26a2.273,2.273,0,1,0,4.547,0v-26h4.972a3.8,3.8,0,0,0,3.8-3.794v-31.7a4.029,4.029,0,0,0,2.9-1.4l3.622-4.214a4.047,4.047,0,0,0-.431-5.7l-26.414-22.7a6.779,6.779,0,0,0-8.891,0l-26.412,22.7a4.045,4.045,0,0,0-.43,5.7l3.622,4.214a4.027,4.027,0,0,0,2.9,1.4V313.8a2.273,2.273,0,1,0,4.546,0V300.988l5.7-4.9a2.371,2.371,0,0,0,.284.019h28.781l5.675,4.878V334.4h-12.434v-7.022a7.784,7.784,0,0,0-15.568,0V334.4h-12.435V323.488a2.273,2.273,0,1,0-4.546,0v11.665a3.8,3.8,0,0,0,3.794,3.794h4.972v67.025h-10.174V364.557l.033.039a2.273,2.273,0,1,0,3.5-2.906l-17.12-20.6a3.13,3.13,0,0,0-4.815,0l-17.12,20.6a2.273,2.273,0,1,0,3.5,2.906l.033-.039v41.415h-10.174V382.209l.033.041a2.273,2.273,0,1,0,3.5-2.907l-17.12-20.6a3.128,3.128,0,0,0-4.813,0l-4.572,5.5a2.273,2.273,0,0,0,3.5,2.906l3.482-4.188,11.452,13.777v.775h-22.9v-.775l1.751-2.106a2.274,2.274,0,0,0-3.5-2.906l-6.329,7.615a2.273,2.273,0,1,0,3.5,2.907l.033-.039v23.762H2461.47v-9.639h2.715a2.274,2.274,0,0,0,0-4.548h-2.715V376.719h2.715a2.273,2.273,0,0,0,0-4.547h-2.715V357.106h2.715a2.273,2.273,0,0,0,0-4.547h-2.715V337.494h2.715a2.273,2.273,0,0,0,0-4.547h-2.715V317.881h2.715a2.274,2.274,0,0,0,0-4.548h-2.715V298.267h2.715a2.273,2.273,0,0,0,0-4.547h-2.715V268.186l1.108,1.107a2.273,2.273,0,0,0,3.215-3.215l-4.988-4.988a2.274,2.274,0,0,0-3.215,0l-5.327,5.328a2.273,2.273,0,0,0,3.215,3.215l1.447-1.447V406.814a3.707,3.707,0,0,0,3.7,3.7h138.124l-1.107,1.108a2.273,2.273,0,0,0,3.215,3.215l4.989-4.988a2.274,2.274,0,0,0,0-3.215Zm-8.424-107.6-52.442-3.777,26.03-22.374a2.26,2.26,0,0,1,2.964,0l26.029,22.374-2.962,3.449-23.066-19.826a2.269,2.269,0,0,0-2.964,0l-23.066,19.826Zm18.258-3.7,9.254-7.954,9.254,7.954Zm6.017,35.814a3.237,3.237,0,0,1,6.474,0V334.4h-6.474Zm-38.933,17.933,11.451,13.777v1.783h-22.9v-1.783Zm-11.452,20.106h22.9v40.555h-4.889v-7.217a6.562,6.562,0,1,0-13.124,0v7.217h-4.889V365.417Zm13.466,40.555h-4.029v-7.217a2.015,2.015,0,1,1,4.029,0ZM2476.7,382.061h22.9v23.911h-4.889v-7.217a6.561,6.561,0,1,0-13.122,0v7.217H2476.7Zm13.467,23.911h-4.03v-7.217a2.015,2.015,0,1,1,4.03,0Zm0,0" transform="translate(-2451.514 -260.424)"/></g></g><path d="M2739.7,378.311a4.622,4.622,0,0,0,4.616-4.616V368.52a4.622,4.622,0,0,0-4.616-4.616h-18.669a4.621,4.621,0,0,0-4.614,4.616v5.175a4.621,4.621,0,0,0,4.614,4.616Zm.07-9.79v5.175a.069.069,0,0,1-.07.068h-7.061v-5.312h7.061a.07.07,0,0,1,.07.069Zm-18.807,5.175V368.52a.069.069,0,0,1,.068-.069h7.062v5.312h-7.062a.068.068,0,0,1-.068-.068Zm0,0" transform="translate(-2609.381 -322.113)"/><path d="M2508.782,375.44a2.265,2.265,0,0,0,1.485-.554l35.35-30.506a2.273,2.273,0,0,0-1.485-3.994h-.012l-6.64.035,29-25.238v1.223a2.274,2.274,0,1,0,4.548,0v-6.216a2.274,2.274,0,0,0-2.273-2.273h-6.693a2.273,2.273,0,1,0,0,4.547h.618l-32.8,28.548a2.274,2.274,0,0,0,1.492,3.989h.012l6.6-.035L2507.3,371.444a2.275,2.275,0,0,0,1.486,4Zm0,0" transform="translate(-2484.249 -288.736)"/></g></g></svg>