<svg xmlns="http://www.w3.org/2000/svg" width="166" height="167" viewBox="0 0 166 167"><defs><style>.a{fill:none;}.b{fill:#39927e;}.b,.c{isolation:isolate;}.c{fill:#5aad95;}.d{fill:#fff;}.e{fill:#daf1f4;}</style></defs><g transform="translate(-2183 1151)"><rect class="a" width="166" height="167" transform="translate(2183 -1151)"/><g transform="translate(2183.308 -1111)"><path class="b" d="M1521.263,362.669c0,33.581-26.8,60.806-59.861,60.806s-59.859-27.224-59.859-60.806,26.8-60.805,59.859-60.805,59.861,27.224,59.861,60.805Zm0,0" transform="translate(-1357.998 -299.4)"/><path class="c" d="M1545.276,301.868q-2.273,0-4.5.17c30.956,2.339,55.357,28.592,55.357,60.634s-24.4,58.3-55.357,60.634c1.488.111,2.988.171,4.5.171,33.061,0,59.861-27.224,59.861-60.806s-26.8-60.8-59.861-60.8Zm0,0" transform="translate(-1441.871 -299.402)"/><path class="d" d="M1528.422,383.507c0,25.786-20.58,46.689-45.965,46.689s-45.964-20.9-45.964-46.689,20.578-46.689,45.964-46.689,45.965,20.9,45.965,46.689Zm0,0" transform="translate(-1379.051 -320.237)"/><path class="e" d="M1545.817,336.818c-1.4,0-2.781.067-4.147.19,23.441,2.131,41.816,22.134,41.816,46.5s-18.375,44.368-41.816,46.5c1.365.123,2.749.19,4.147.19,25.385,0,45.965-20.9,45.965-46.689s-20.58-46.689-45.965-46.689Zm0,0" transform="translate(-1442.412 -320.237)"/><path d="M1319.98,358.222h25.6a2.466,2.466,0,0,0,0-4.931h-25.6a2.466,2.466,0,0,0,0,4.931Zm0,0" transform="translate(-1307.401 -330.058)"/><path d="M1366.836,394.892h-10.113a2.466,2.466,0,0,0,0,4.931h10.113a2.466,2.466,0,0,0,0-4.931Zm0,0" transform="translate(-1329.536 -354.858)"/><path d="M1294.446,429.948h24.76a2.466,2.466,0,0,0,0-4.931h-24.76a2.466,2.466,0,0,0,0,4.931Zm0,0" transform="translate(-1292.019 -372.816)"/><path d="M1348.005,541.81a2.446,2.446,0,0,0-2.427-2.466h-25.6a2.466,2.466,0,0,0,0,4.931h25.6a2.445,2.445,0,0,0,2.427-2.465Zm0,0" transform="translate(-1307.401 -440.971)"/><path d="M1366.836,497.748h-10.113a2.466,2.466,0,0,0,0,4.931h10.113a2.466,2.466,0,0,0,0-4.931Zm0,0" transform="translate(-1329.536 -416.174)"/><path d="M1321.634,470.088a2.446,2.446,0,0,0-2.427-2.465h-24.76a2.466,2.466,0,0,0,0,4.931h24.76a2.446,2.446,0,0,0,2.427-2.466Zm0,0" transform="translate(-1292.019 -398.215)"/><path d="M1548.425,366.195a2.446,2.446,0,0,0,2.427-2.465v-3.763a2.428,2.428,0,1,0-4.855,0v3.763a2.445,2.445,0,0,0,2.427,2.465Zm0,0" transform="translate(-1445.019 -332.567)"/><path d="M1608.974,384.237a2.4,2.4,0,0,0-3.431,0l-2.621,2.663a2.494,2.494,0,0,0,0,3.486,2.4,2.4,0,0,0,3.433,0l2.619-2.661a2.5,2.5,0,0,0,0-3.488Zm0,0" transform="translate(-1478.883 -348.076)"/><path d="M1627.922,446.32a2.466,2.466,0,0,0,0,4.931h3.7a2.466,2.466,0,0,0,0-4.931Zm0,0" transform="translate(-1492.91 -385.516)"/><path d="M1606.355,503.257a2.4,2.4,0,0,0-3.433,0,2.494,2.494,0,0,0,0,3.486l2.621,2.663a2.4,2.4,0,0,0,3.431,0,2.5,2.5,0,0,0,0-3.488Zm0,0" transform="translate(-1478.883 -419.028)"/><path d="M1546,528.286v3.762a2.428,2.428,0,1,0,4.855,0v-3.762a2.428,2.428,0,1,0-4.855,0Zm0,0" transform="translate(-1445.019 -432.909)"/><path d="M1486.523,503.257l-2.619,2.661a2.493,2.493,0,0,0,0,3.488,2.4,2.4,0,0,0,3.431,0l2.619-2.663a2.491,2.491,0,0,0,0-3.486,2.4,2.4,0,0,0-3.432,0Zm0,0" transform="translate(-1407.185 -419.028)"/><path d="M1459.608,446.32a2.466,2.466,0,0,0,0,4.931h3.7a2.466,2.466,0,0,0,0-4.931Zm0,0" transform="translate(-1391.515 -385.516)"/><path d="M1489.958,386.9l-2.621-2.663a2.4,2.4,0,0,0-3.432,0,2.5,2.5,0,0,0,0,3.488l2.619,2.661a2.4,2.4,0,0,0,3.433,0,2.494,2.494,0,0,0,0-3.486Zm0,0" transform="translate(-1407.186 -348.076)"/><path d="M1561.476,418.127a2.447,2.447,0,0,0-2.427-2.465h-8.2v-18.3a2.428,2.428,0,1,0-4.855,0v20.769a2.446,2.446,0,0,0,2.427,2.466h10.624a2.447,2.447,0,0,0,2.427-2.466Zm0,0" transform="translate(-1445.019 -354.858)"/><path d="M1524.8,379.46a2.449,2.449,0,0,0,2.276-2.609c-1.544-25.872-22.758-46.138-48.3-46.138-26.682,0-48.391,22.05-48.391,49.154s21.71,49.155,48.391,49.155c23.905,0,44.3-17.79,47.852-41.8a2.428,2.428,0,1,0-4.8-.731,43.777,43.777,0,0,1-43.051,37.6c-24.005,0-43.537-19.84-43.537-44.226s19.532-44.224,43.537-44.224c22.978,0,42.065,18.232,43.454,41.507a2.441,2.441,0,0,0,2.568,2.309Zm0,0" transform="translate(-1375.374 -316.598)"/><path d="M1446.263,295.763a61.406,61.406,0,0,0-24.6,5.164h-42.824a2.466,2.466,0,0,0,0,4.931h33.692a62.489,62.489,0,0,0-12.446,10.716,2.493,2.493,0,0,0,.168,3.482,2.4,2.4,0,0,0,3.428-.171,57.157,57.157,0,0,1,42.581-19.191c31.669,0,57.433,26.17,57.433,58.339s-25.764,58.339-57.433,58.339-57.432-26.17-57.432-58.339a58.8,58.8,0,0,1,9.161-31.619,2.488,2.488,0,0,0-.721-3.409,2.406,2.406,0,0,0-3.356.733,63.9,63.9,0,0,0,18.634,87.47h-33.709a2.466,2.466,0,0,0,0,4.931h42.79a61.075,61.075,0,0,0,24.635,5.164c34.344,0,62.287-28.382,62.287-63.27s-27.943-63.269-62.288-63.269Zm0,0" transform="translate(-1342.859 -295.763)"/></g></g></svg>