<svg xmlns="http://www.w3.org/2000/svg" width="166" height="167" viewBox="0 0 166 167"><defs><style>.a{fill:none;}.b{fill:#39927e;}.b,.d{isolation:isolate;}.c{fill:#fff;}.d{fill:#fdd900;}</style></defs><g transform="translate(-1967 1147)"><rect class="a" width="166" height="167" transform="translate(1967 -1147)"/><g transform="translate(1987 -1129)"><path class="b" d="M907.5,452.751H822.085a5.81,5.81,0,0,1-5.81-5.81V338.87a5.81,5.81,0,0,1,5.81-5.81H907.5a5.81,5.81,0,0,1,5.81,5.81v108.07A5.81,5.81,0,0,1,907.5,452.751Z" transform="translate(-790.11 -306.896)"/><path class="b" d="M878.722,423.978H793.311a5.81,5.81,0,0,1-5.81-5.81V310.1a5.81,5.81,0,0,1,5.81-5.81h85.411a5.81,5.81,0,0,1,5.81,5.81v108.07A5.81,5.81,0,0,1,878.722,423.978Z" transform="translate(-772.957 -289.743)"/><path class="c" d="M849.9,395.159H764.493a5.81,5.81,0,0,1-5.81-5.81V281.278a5.81,5.81,0,0,1,5.81-5.81H849.9a5.81,5.81,0,0,1,5.81,5.81v108.07A5.81,5.81,0,0,1,849.9,395.159Z" transform="translate(-755.778 -272.563)"/><rect class="d" width="27.889" height="27.889" transform="translate(19.175 24.403)"/><path d="M845.615,393.776H760.2a8.725,8.725,0,0,1-8.715-8.716V331.122a2.905,2.905,0,1,1,5.81,0V385.06a2.909,2.909,0,0,0,2.905,2.905h85.411a2.908,2.908,0,0,0,2.9-2.905V276.99a2.908,2.908,0,0,0-2.9-2.905H760.2a2.909,2.909,0,0,0-2.905,2.905v29.632a2.905,2.905,0,0,1-5.81,0V276.99a8.725,8.725,0,0,1,8.715-8.715h85.411a8.725,8.725,0,0,1,8.715,8.715V385.06A8.725,8.725,0,0,1,845.615,393.776Z" transform="translate(-751.489 -268.275)"/><path d="M754.394,394.055a2.907,2.907,0,1,1,2.054-.851A2.927,2.927,0,0,1,754.394,394.055Z" transform="translate(-751.489 -339.794)"/><path d="M783.21,599.267a2.907,2.907,0,1,1,2.054-.851A2.913,2.913,0,0,1,783.21,599.267Z" transform="translate(-768.667 -462.129)"/><path d="M891.587,422.594h-79.6a2.9,2.9,0,1,1,0-5.81h79.6a2.909,2.909,0,0,0,2.905-2.905V300a2.905,2.905,0,1,1,5.81,0v113.88A8.725,8.725,0,0,1,891.587,422.594Z" transform="translate(-785.822 -285.455)"/><path d="M903.253,451.322H812.032a2.9,2.9,0,1,1,0-5.81h91.221a2.909,2.909,0,0,0,2.905-2.905V328.726a2.9,2.9,0,1,1,5.81,0v113.88A8.725,8.725,0,0,1,903.253,451.322Z" transform="translate(-785.849 -302.58)"/><path d="M822.566,355.2H794.677a2.905,2.905,0,0,1-2.905-2.9V324.41a2.905,2.905,0,0,1,2.905-2.905h27.889a2.905,2.905,0,0,1,2.9,2.905V352.3A2.905,2.905,0,0,1,822.566,355.2Zm-24.984-5.81h22.079V327.315H797.582Z" transform="translate(-775.503 -300.007)"/><path d="M802.96,451.088h0a2.906,2.906,0,0,1-2.054-.851l-5.645-5.645a2.905,2.905,0,1,1,4.109-4.108l3.591,3.591,7.723-7.723a2.9,2.9,0,1,1,4.108,4.108l-9.777,9.777A2.906,2.906,0,0,1,802.96,451.088Z" transform="translate(-777.075 -367.965)"/><path d="M908.416,453.2H874.523a2.905,2.905,0,1,1,0-5.81h33.893a2.905,2.905,0,1,1,0,5.81Z" transform="translate(-823.103 -375.052)"/><path d="M924.352,327.315H904.016a2.905,2.905,0,0,1,0-5.81h20.336a2.905,2.905,0,0,1,0,5.81Z" transform="translate(-840.684 -300.007)"/><path d="M924.352,361.844H904.016a2.9,2.9,0,1,1,0-5.81h20.336a2.9,2.9,0,0,1,0,5.81Z" transform="translate(-840.684 -320.592)"/><path d="M924.352,396.372H904.016a2.9,2.9,0,1,1,0-5.81h20.336a2.9,2.9,0,0,1,0,5.81Z" transform="translate(-840.684 -341.175)"/><path d="M802.96,506.021h0a2.906,2.906,0,0,1-2.054-.851l-5.645-5.645a2.905,2.905,0,0,1,4.109-4.108l3.591,3.591,7.723-7.723a2.905,2.905,0,1,1,4.108,4.108l-9.777,9.777A2.906,2.906,0,0,1,802.96,506.021Z" transform="translate(-777.075 -400.713)"/><path d="M908.416,507.869H874.523a2.9,2.9,0,1,1,0-5.81h33.893a2.9,2.9,0,1,1,0,5.81Z" transform="translate(-823.103 -407.643)"/></g></g></svg>