<svg xmlns="http://www.w3.org/2000/svg" width="166" height="167.083" viewBox="0 0 166 167.083"><defs><style>.a{fill:none;}.b{fill:#39927e;}.b,.c,.f{isolation:isolate;}.c{fill:#5aad95;}.d{fill:#fff;}.e{fill:#bae1e5;}.f{fill:#fdd900;}</style></defs><g transform="translate(-2423 1157)"><rect class="a" width="166" height="167" transform="translate(2423 -1157)"/><g transform="translate(2428 -1145)"><path class="b" d="M2013.556,320.556v86.8a13.915,13.915,0,0,1-13.9,13.933H1876.914a13.916,13.916,0,0,1-13.9-13.933v-86.8a13.916,13.916,0,0,1,13.9-13.933h122.745a13.915,13.915,0,0,1,13.9,13.933Zm0,0" transform="translate(-1860.745 -287.965)"/><path class="c" d="M2206.312,320.556v86.8a13.915,13.915,0,0,1-13.9,13.933h-6.058a13.915,13.915,0,0,0,13.9-13.933v-86.8a13.915,13.915,0,0,0-13.9-13.933h6.058a13.915,13.915,0,0,1,13.9,13.933Zm0,0" transform="translate(-2053.501 -287.965)"/><path class="d" d="M2017.873,332.923v78.158a4.919,4.919,0,0,1-4.914,4.925H1890.371a4.919,4.919,0,0,1-4.913-4.925V332.923a4.918,4.918,0,0,1,4.913-4.925h122.588a4.919,4.919,0,0,1,4.914,4.925Zm0,0" transform="translate(-1874.123 -300.707)"/><path class="e" d="M2197.134,332.923v78.158a4.92,4.92,0,0,1-4.914,4.925h-6.058a4.919,4.919,0,0,0,4.914-4.925V332.923a4.918,4.918,0,0,0-4.914-4.925h6.058a4.919,4.919,0,0,1,4.914,4.925Zm0,0" transform="translate(-2053.385 -300.707)"/><path class="b" d="M2040.753,610.031h-36.291l5.965-19.49h24.361Zm0,0" transform="translate(-1945.066 -457.22)"/><path class="d" d="M2026,315.771a49.826,49.826,0,0,1-49.823,49.823q-1.526,0-3.029-.092a49.825,49.825,0,0,1,0-99.465q1.5-.09,3.029-.09A49.824,49.824,0,0,1,2026,315.771Zm0,0" transform="translate(-1898.5 -263.716)"/><path class="e" d="M2095.068,315.771a49.826,49.826,0,0,1-49.823,49.823q-1.526,0-3.029-.092a49.825,49.825,0,0,0,0-99.465q1.5-.09,3.029-.09a49.824,49.824,0,0,1,49.823,49.824Zm0,0" transform="translate(-1967.573 -263.716)"/><path class="f" d="M1941.369,318.077a5.3,5.3,0,1,1-5.3-5.3,5.3,5.3,0,0,1,5.3,5.3Zm0,0" transform="translate(-1901.131 -291.633)"/><path class="f" d="M2047.189,420.436a5.3,5.3,0,1,1-5.3-5.3,5.3,5.3,0,0,1,5.3,5.3Zm0,0" transform="translate(-1964.215 -352.653)"/><path class="f" d="M2118.6,341.573a5.3,5.3,0,1,1-5.3-5.3,5.3,5.3,0,0,1,5.3,5.3Zm0,0" transform="translate(-2006.787 -305.64)"/><path d="M1996.3,301.131h-12.927a2.272,2.272,0,1,0,0,4.543H1996.3a11.655,11.655,0,0,1,11.627,11.657v86.761a11.655,11.655,0,0,1-11.627,11.657H1873.562a11.655,11.655,0,0,1-11.627-11.657V388.01a2.272,2.272,0,0,0-4.543,0v16.082a16.2,16.2,0,0,0,16.17,16.2h46.119l-4.573,14.938h-10.076a2.272,2.272,0,0,0,0,4.543h59.8a2.272,2.272,0,0,0,0-4.543h-10.076l-4.573-14.938H1996.3a16.2,16.2,0,0,0,16.17-16.2V317.331a16.2,16.2,0,0,0-16.17-16.2Zm-46.3,134.1H1919.86l4.573-14.938h21Zm0,0" transform="translate(-1857.392 -284.691)"/><path d="M1859.664,379.715a2.272,2.272,0,0,0,2.272-2.272V317.331a11.655,11.655,0,0,1,11.627-11.657h6.6a2.272,2.272,0,1,0,0-4.543h-6.6a16.2,16.2,0,0,0-16.17,16.2v60.112a2.272,2.272,0,0,0,2.272,2.272Zm0,0" transform="translate(-1857.392 -284.691)"/><path d="M2193.058,329.692a7.2,7.2,0,0,0-7.183-7.194h-8.086a2.272,2.272,0,0,0,0,4.543h8.086a2.649,2.649,0,0,1,2.64,2.651v44.545a2.272,2.272,0,1,0,4.543,0Zm0,0" transform="translate(-2047.039 -297.429)"/><path d="M2016.79,407.822V384.931a2.272,2.272,0,0,0-4.543,0v22.891a2.649,2.649,0,0,1-2.64,2.65h-122.59a2.649,2.649,0,0,1-2.64-2.65v-78.13a2.649,2.649,0,0,1,2.64-2.651h4.278a2.272,2.272,0,0,0,0-4.543h-4.278a7.2,7.2,0,0,0-7.183,7.194v78.13a7.2,7.2,0,0,0,7.183,7.194h122.59a7.2,7.2,0,0,0,7.183-7.194Zm0,0" transform="translate(-1870.77 -297.429)"/><path d="M1902.082,562.654a2.272,2.272,0,0,0,0,4.543h9.28a2.272,2.272,0,0,0,0-4.543Zm0,0" transform="translate(-1882.679 -440.595)"/><path d="M1947.082,562.654a2.272,2.272,0,0,0,0,4.543h9.28a2.272,2.272,0,0,0,0-4.543Zm0,0" transform="translate(-1909.505 -440.595)"/><path d="M1972.784,364.573a52.1,52.1,0,0,0,44.9-25.626,2.271,2.271,0,1,0-3.911-2.311,47.8,47.8,0,0,1-10.5,12.346q-2.8-1.259-5.807-2.268c4.846-8.9,7.628-20.07,7.943-31.943h14.892a47.314,47.314,0,0,1-2.461,13.018,2.272,2.272,0,1,0,4.3,1.462,52.137,52.137,0,0,0-72.97-63.192,52.633,52.633,0,0,0-16.858,13.618,7.567,7.567,0,0,0-7.583,12.613,51.6,51.6,0,0,0-4.071,20.209,52.156,52.156,0,0,0,52.119,52.075Zm-47.521-49.8h14.892c.315,11.871,3.1,23.046,7.943,31.943q-2.991,1-5.788,2.259a47.453,47.453,0,0,1-17.047-34.2Zm45.25,45.1c-5.615-.771-10.934-4.4-15.354-10.458a75.314,75.314,0,0,1,15.354-1.972Zm4.543,0v-12.43a75.293,75.293,0,0,1,15.353,1.972c-4.419,6.061-9.738,9.686-15.353,10.458Zm-2.272-28.625a3.027,3.027,0,1,1,3.032-3.027,3.033,3.033,0,0,1-3.032,3.027ZM1970.512,321a7.57,7.57,0,0,0,0,14.446V342.9a79.247,79.247,0,0,0-17.953,2.485c-4.783-8.368-7.538-19.111-7.859-30.613h25.812Zm-23.981,31.123q1.943-.772,3.982-1.42a40.142,40.142,0,0,0,4.971,6.077,47.617,47.617,0,0,1-8.953-4.657Zm50.189,1.464a47.206,47.206,0,0,1-6.651,3.205,39.968,39.968,0,0,0,4.984-6.089q2.049.651,4.005,1.428-1.145.762-2.338,1.456Zm-3.712-8.2a79.242,79.242,0,0,0-17.953-2.485v-7.454a7.57,7.57,0,0,0,0-14.446V314.77h25.812c-.322,11.5-3.078,22.245-7.859,30.613Zm-17.953-80.256c5.645.8,10.99,4.527,15.341,10.458a75.213,75.213,0,0,1-15.341,1.967Zm-4.543,0v12.43a75.3,75.3,0,0,1-15.375-1.977c4.34-5.943,9.682-9.664,15.375-10.453Zm4.543,16.975a79.232,79.232,0,0,0,17.95-2.483,54.647,54.647,0,0,1,4.52,10.406,7.567,7.567,0,0,0,2.9,13.839c.231,2.1.377,4.226.437,6.367h-25.811Zm26.57,17.312a3.027,3.027,0,1,1,3.031-3.026,3.032,3.032,0,0,1-3.031,3.026Zm18.68,10.816h-14.894c-.063-2.363-.225-4.715-.484-7.03a7.57,7.57,0,0,0-3.016-14.378,60.3,60.3,0,0,0-4.441-10.535q2.992-1,5.786-2.259a47.451,47.451,0,0,1,17.049,34.2Zm-21.269-37.349q-1.943.769-3.982,1.417a40.807,40.807,0,0,0-4.141-5.206q-.426-.452-.858-.879a47.357,47.357,0,0,1,8.981,4.668Zm-47.8-2.767q2.134-1.086,4.338-1.943a39.846,39.846,0,0,0-5.056,6.131q-2.049-.654-4.005-1.428a47.146,47.146,0,0,1,4.724-2.759Zm-21.189,13.763a3.027,3.027,0,1,1-3.031,3.026,3.032,3.032,0,0,1,3.031-3.026Zm0,10.6a7.566,7.566,0,0,0,6.006-12.18,47.857,47.857,0,0,1,6.242-6.273q2.8,1.259,5.8,2.267a62.2,62.2,0,0,0-5.411,13.868,2.27,2.27,0,0,0,1.615,2.777,2.33,2.33,0,0,0,.582.076,2.271,2.271,0,0,0,2.195-1.693,57.426,57.426,0,0,1,5.458-13.7,79.243,79.243,0,0,0,17.973,2.488v28.13H1944.7c.066-2.36.237-4.709.51-7.007a2.272,2.272,0,0,0-4.512-.535c-.294,2.475-.475,5-.543,7.542h-14.9a46.994,46.994,0,0,1,3.531-15.861,7.658,7.658,0,0,0,1.256.1Zm0,0" transform="translate(-1895.111 -260.424)"/><path d="M1921.508,484.44h-9.735a2.272,2.272,0,1,0,0,4.543h9.735a2.272,2.272,0,0,0,0-4.543Zm0,0" transform="translate(-1888.456 -393.969)"/><path d="M1909.5,512.962a2.273,2.273,0,0,0,2.272,2.272h15.784a2.272,2.272,0,1,0,0-4.543h-15.784a2.271,2.271,0,0,0-2.272,2.272Zm0,0" transform="translate(-1888.456 -409.617)"/></g></g></svg>