<svg xmlns="http://www.w3.org/2000/svg" width="145" height="174" viewBox="0 0 145 174"><defs><style>.a{fill:none;}.b{fill:#ffdaaa;}.c{fill:#ffc477;}.d{fill:#39927e;}.d,.e,.f{isolation:isolate;}.e{fill:#2d7f6a;}.f{fill:#ffd801;}.g{fill:#57565c;}.h{fill:#3e3d42;}</style></defs><g transform="translate(0.361 -0.431)"><rect class="a" width="145" height="174" transform="translate(-0.361 0.431)"/><g transform="translate(0 31.701)"><path class="b" d="M1651.751,388.973V403.1a14.125,14.125,0,1,1-28.251,0V388.973l21.188-4.708Zm0,0" transform="translate(-1565.363 -307.543)"/><path class="c" d="M1668.157,388.973V403.1a14.113,14.113,0,0,1-14.125,14.126,13.472,13.472,0,0,1-3.531-.471,11.335,11.335,0,0,0,1.789-.565,14.148,14.148,0,0,0,8.805-13.089V388.973l-5.3-3.531,5.3-1.177Zm0,0" transform="translate(-1581.769 -307.543)"/><path class="d" d="M1642.711,495.681v14.125H1581.5V495.681l21.188-9.417h18.834Zm0,0" transform="translate(-1539.843 -369.521)"/><path class="e" d="M1642.711,503.775V517.9H1581.5v-4.708h38.186a13.606,13.606,0,0,0,13.608-13.608Zm0,0" transform="translate(-1539.843 -377.615)"/><path class="b" d="M1653.883,465.623l1.743,10.453-7.063,7.063-7.063-7.063,1.743-10.453a14.18,14.18,0,0,0,10.64,0Zm0,0" transform="translate(-1576.3 -356.979)"/><path class="c" d="M1655.626,476.076l-.682.682-1.061-6.427a14.18,14.18,0,0,1-10.64,0l-1.061,6.427-.682-.682,1.743-10.453a14.18,14.18,0,0,0,10.64,0Zm0,0" transform="translate(-1576.3 -356.979)"/><path class="f" d="M1649.568,207.885l-11.183,8.122,4.284,13.184-11.206-8.146-11.206,8.146,4.284-13.184-11.183-8.122h13.819l4.286-13.16,4.286,13.16Zm0,0" transform="translate(-1559.201 -192.375)"/><path class="f" d="M1547.568,273.885l-11.183,8.122,4.284,13.184-11.206-8.146-11.206,8.146,4.284-13.184-11.183-8.122h13.819l4.286-13.16,4.286,13.16Zm0,0" transform="translate(-1497.224 -232.478)"/><path class="f" d="M1517.568,393.885l-11.183,8.122,4.284,13.184-11.206-8.146-11.206,8.146,4.284-13.184-11.183-8.122h13.819l4.286-13.16,4.286,13.16Zm0,0" transform="translate(-1478.995 -305.393)"/><path class="f" d="M1751.568,273.885l-11.183,8.122,4.284,13.184-11.206-8.146-11.206,8.146,4.284-13.184-11.183-8.122h13.819l4.286-13.16,4.286,13.16Zm0,0" transform="translate(-1621.179 -232.478)"/><path class="f" d="M1781.568,393.885l-11.183,8.122,4.284,13.184-11.206-8.146-11.206,8.146,4.284-13.184-11.183-8.122h13.819l4.285-13.16,4.286,13.16Zm0,0" transform="translate(-1639.408 -305.393)"/><path class="g" d="M1647.877,368.39v2.354l-7.063,7.063v-7.063l-18.834-4.708-9.417,4.708v7.063l-7.063-7.063V368.39a14.125,14.125,0,0,1,14.126-14.126h14.125a14.125,14.125,0,0,1,14.125,14.126Zm0,0" transform="translate(-1554.426 -289.315)"/><path class="h" d="M1680.688,368.39v2.354l-7.063,7.063V368.39a14.125,14.125,0,0,0-14.126-14.126h7.063a14.125,14.125,0,0,1,14.126,14.126Zm0,0" transform="translate(-1587.238 -289.315)"/><path d="M1780.157,389.519a2.354,2.354,0,0,0-2.241-1.626H1765.79l-3.748-11.535a2.354,2.354,0,0,0-4.474,0l-3.752,11.535h-12.127a2.354,2.354,0,0,0-1.384,4.259l9.81,7.129-3.748,11.535a2.354,2.354,0,0,0,3.625,2.632l9.811-7.13,9.811,7.129a2.354,2.354,0,0,0,3.625-2.633l-3.748-11.535,9.81-7.129a2.354,2.354,0,0,0,.857-2.63Zm-14.832,6.957a2.355,2.355,0,0,0-.854,2.633l2.037,6.269-5.334-3.875a2.351,2.351,0,0,0-2.768,0l-5.332,3.875,2.037-6.269a2.358,2.358,0,0,0-.855-2.633l-5.323-3.875h6.592a2.358,2.358,0,0,0,2.24-1.627l2.038-6.27,2.037,6.27a2.354,2.354,0,0,0,2.238,1.627h6.592Zm0,0" transform="translate(-1635.747 -301.755)"/><path d="M1618.115,213.28l-3.748,11.535a2.354,2.354,0,0,0,3.625,2.632l9.811-7.13,9.811,7.129a2.354,2.354,0,0,0,3.625-2.633l-3.748-11.535,9.809-7.129a2.354,2.354,0,0,0-1.384-4.256H1633.79l-3.748-11.535a2.354,2.354,0,0,0-4.474,0l-3.752,11.535h-12.127a2.354,2.354,0,0,0-1.384,4.259Zm5.413-6.679a2.354,2.354,0,0,0,2.238-1.626l2.037-6.27,2.037,6.27a2.354,2.354,0,0,0,2.238,1.626h6.592l-5.334,3.875a2.353,2.353,0,0,0-.855,2.633l2.037,6.268-5.333-3.874a2.352,2.352,0,0,0-2.769,0l-5.332,3.874,2.037-6.268a2.353,2.353,0,0,0-.855-2.633l-5.332-3.875Zm0,0" transform="translate(-1555.54 -188.736)"/><path d="M1505.491,399.28l9.809-7.129a2.354,2.354,0,0,0-1.384-4.259H1501.79l-3.748-11.535a2.354,2.354,0,0,0-4.474,0l-3.752,11.535h-12.127a2.354,2.354,0,0,0-1.384,4.259l9.809,7.129-3.748,11.535a2.354,2.354,0,0,0,3.625,2.632l9.811-7.13,9.811,7.129a2.354,2.354,0,0,0,3.625-2.633Zm-8.3,2.222a2.351,2.351,0,0,0-2.768,0l-5.332,3.875,2.035-6.269a2.355,2.355,0,0,0-.853-2.633l-5.336-3.875h6.592a2.358,2.358,0,0,0,2.239-1.627l2.038-6.27,2.037,6.27a2.354,2.354,0,0,0,2.238,1.627h6.592l-5.333,3.875a2.353,2.353,0,0,0-.855,2.633l2.037,6.269Zm0,0" transform="translate(-1475.334 -301.755)"/><path d="M1516.115,279.279l-3.748,11.536a2.354,2.354,0,0,0,3.625,2.632l9.811-7.13,9.811,7.129a2.355,2.355,0,0,0,3.625-2.633l-3.748-11.535,9.81-7.129a2.354,2.354,0,0,0-1.384-4.256H1531.79l-3.748-11.535a2.354,2.354,0,0,0-4.474,0l-3.752,11.535h-12.127a2.354,2.354,0,0,0-1.384,4.259Zm5.413-6.679a2.354,2.354,0,0,0,2.238-1.626l2.037-6.27,2.037,6.27a2.354,2.354,0,0,0,2.238,1.626h6.592l-5.333,3.875a2.352,2.352,0,0,0-.855,2.633l2.037,6.269-5.333-3.874a2.352,2.352,0,0,0-2.77,0l-5.332,3.874,2.037-6.269a2.353,2.353,0,0,0-.855-2.633l-5.332-3.875Zm0,0" transform="translate(-1493.563 -228.839)"/><path d="M1709.446,269.518a2.354,2.354,0,0,0,.857,2.633l9.81,7.128-3.748,11.536a2.354,2.354,0,0,0,3.625,2.632l9.811-7.13,9.811,7.129a2.354,2.354,0,0,0,3.625-2.633l-3.748-11.535,9.809-7.129a2.354,2.354,0,0,0-1.384-4.256h-12.127l-3.748-11.535a2.354,2.354,0,0,0-4.474,0l-3.752,11.535h-12.127a2.354,2.354,0,0,0-2.241,1.626Zm16.08,3.083a2.354,2.354,0,0,0,2.238-1.626l2.037-6.27,2.037,6.27a2.354,2.354,0,0,0,2.238,1.626h6.592l-5.334,3.875a2.352,2.352,0,0,0-.855,2.633l2.037,6.269-5.332-3.874a2.352,2.352,0,0,0-2.769,0l-5.332,3.874,2.037-6.269a2.353,2.353,0,0,0-.855-2.633l-5.332-3.875Zm0,0" transform="translate(-1617.516 -228.839)"/><rect width="4.709" height="4.709" transform="translate(74.617 88.492)"/><rect width="4.709" height="4.709" transform="translate(65.2 88.492)"/><path d="M1640.031,409.686l-21.188-9.417a2.24,2.24,0,0,0-1.7-.071l-.754-4.543a16.483,16.483,0,0,0,8.546-14.432v-6.1l6.381-6.356A2.443,2.443,0,0,0,1632,367.1v-2.354a16.5,16.5,0,0,0-16.48-16.48H1601.4a16.5,16.5,0,0,0-16.48,16.48V367.1a2.442,2.442,0,0,0,.682,1.672l6.381,6.356v6.1a16.483,16.483,0,0,0,8.546,14.432l-.754,4.543a2.24,2.24,0,0,0-1.7.071l-21.188,9.417a2.324,2.324,0,0,0-1.389,2.143v14.126a2.355,2.355,0,0,0,2.354,2.354h61.211a2.355,2.355,0,0,0,2.354-2.354V411.829a2.324,2.324,0,0,0-1.388-2.143ZM1591.98,367.1v1.389l-2.354-2.354v-1.389a11.77,11.77,0,0,1,11.771-11.771h14.126a11.77,11.77,0,0,1,11.771,11.771v1.389l-2.354,2.354V367.1a2.355,2.355,0,0,0-1.789-2.284l-18.834-4.709a2.306,2.306,0,0,0-1.624.189L1593.275,365a2.3,2.3,0,0,0-1.3,2.1Zm4.708,14.126V368.557l7.345-3.673,16.2,4.05v12.29a11.771,11.771,0,1,1-23.543,0ZM1613,403.966l-4.543,4.543-4.543-4.543,1.1-6.64a15.867,15.867,0,0,0,6.876,0Zm23.708,19.634h-56.5V413.358l18.316-8.145,8.263,8.287a2.375,2.375,0,0,0,3.344,0l8.263-8.287,18.316,8.145Zm0,0" transform="translate(-1536.197 -285.669)"/></g></g></svg>