<svg xmlns="http://www.w3.org/2000/svg" xmlns:xlink="http://www.w3.org/1999/xlink" width="144" height="174.431" viewBox="0 0 144 174.431"><defs><style>.a{fill:none;}.b{fill:#f7caa5;}.c{fill:#ffd801;}.c,.d,.e{isolation:isolate;}.d{fill:#fedc00;}.e{fill:#39927e;}.f{clip-path:url(#a);}</style><clipPath id="a"><rect class="a" width="127.956" height="174.133"/></clipPath></defs><g transform="translate(0.052)"><rect class="a" width="144" height="174" transform="translate(-0.052 0.431)"/><g transform="translate(8.454)"><path class="b" d="M647.75,446.085l18.744-14.013a9.782,9.782,0,0,1,13.446,1.265L643.347,469.17a29.587,29.587,0,0,1-17.665,5.728l-30.726-2.25a11,11,0,0,0-7.807,2.5l-5.428,4.406-5.2-29.73.244-.041A29.024,29.024,0,0,1,605.9,441.7l1.919.546a20.744,20.744,0,0,0,9.25.484l17.179-3.006a12.961,12.961,0,0,1,13.505,6.357Zm0,0" transform="translate(-554.127 -314.271)"/><path class="c" d="M796.226,279.082c0,.071,0,.14,0,.212l-.208,0H785.271c0-.07,0-.137,0-.208a31.663,31.663,0,0,0-9.337-22.5l7.606-7.606.134-.138a42.585,42.585,0,0,1,12.549,30.243Zm0,0" transform="translate(-675.297 -204.212)"/><path class="d" d="M795.773,326.445l.208,0a42.537,42.537,0,0,1-12.7,30.176l-.131-.133-7.61-7.609a31.65,31.65,0,0,0,9.49-22.439Zm0,0" transform="translate(-675.055 -251.368)"/><path class="e" d="M692,254.213a31.663,31.663,0,0,1,9.337,22.5c0,.071,0,.138,0,.208a31.769,31.769,0,0,1-31.766,31.56c-.162,0-.328,0-.49-.007A31.755,31.755,0,0,1,637.8,276.914c0-.068,0-.134,0-.2a31.776,31.776,0,0,1,31.277-31.766c.166-.007.329-.007.494-.007A31.665,31.665,0,0,1,692,254.213Zm0,0" transform="translate(-591.359 -201.843)"/><path class="c" d="M748.17,229.518l-.134.138-7.606,7.606A31.665,31.665,0,0,0,718,227.988c-.166,0-.328,0-.494.007V217.32l0-.271c.165-.007.332-.007.5-.007a42.592,42.592,0,0,1,30.171,12.476Zm0,0" transform="translate(-639.79 -184.892)"/><path class="c" d="M747.884,391.241l.131.133A42.573,42.573,0,0,1,718,403.7c-.166,0-.332,0-.5-.007l0-.208V392.915l0-.169c.162.007.328.007.49.007a31.651,31.651,0,0,0,22.276-9.121Zm0,0" transform="translate(-639.79 -286.116)"/><path class="c" d="M671.452,392.417l0,.169v10.575l0,.208a42.538,42.538,0,0,1-29.741-12.538l7.578-7.577.165-.162a31.644,31.644,0,0,0,22,9.326Zm0,0" transform="translate(-593.734 -285.787)"/><path class="c" d="M671.214,217.331v10.675a31.655,31.655,0,0,0-22.152,9.486l-.17-.165-7.573-7.576a42.543,42.543,0,0,1,29.892-12.691Zm0,0" transform="translate(-593.5 -184.903)"/><path class="c" d="M630.124,348.661l-.165.162-7.578,7.577A42.539,42.539,0,0,1,609.9,326.435h10.5l.449-.007a31.645,31.645,0,0,0,9.272,22.233Zm0,0" transform="translate(-574.41 -251.357)"/><path class="c" d="M629.8,256.979l.17.165a31.648,31.648,0,0,0-9.125,22.28c0,.068,0,.133,0,.2l-.449.007H609.9c0-.07,0-.137,0-.208a42.549,42.549,0,0,1,12.33-30.021Zm0,0" transform="translate(-574.406 -204.555)"/><g transform="translate(0 0)"><g class="f"><path class="e" d="M550.331,497.639l.6,3.439-18.845,3.3-7.228-41.347,18.839-3.3,1.43,8.178Zm0,0" transform="translate(-522.738 -332.356)"/><path d="M542.509,438a2.116,2.116,0,0,0-2.448-1.719l-18.84,3.3a2.115,2.115,0,0,0-1.718,2.447l7.228,41.347a2.115,2.115,0,0,0,2.448,1.718l18.843-3.3a2.115,2.115,0,0,0,1.719-2.448l-.388-2.215,4.481-3.638a8.838,8.838,0,0,1,6.3-2.019l30.725,2.25c.106.007.212.006.315.006a31.913,31.913,0,0,0,18.757-6.138,2.189,2.189,0,0,0,.229-.194l36.593-35.832a2.114,2.114,0,0,0,.117-2.9,11.884,11.884,0,0,0-16.331-1.556l-16.956,12.676a15.117,15.117,0,0,0-14.369-5.427l-17.18,3.006a18.752,18.752,0,0,1-8.307-.434l-1.921-.547a31,31,0,0,0-28.517,6.081ZM530.534,480.56l-6.5-37.18,14.693-2.567,6.284,35.822.219,1.356Zm40.12-40.1,1.919.545a22.963,22.963,0,0,0,10.194.533l17.179-3.008a10.873,10.873,0,0,1,11.3,5.328,10.547,10.547,0,0,1,.69,1.448l-25.954,4.54a2.115,2.115,0,1,0,.728,4.167l28.241-4.939a2.114,2.114,0,0,0,1.718-2.447,15.036,15.036,0,0,0-.92-3.173l17.341-12.968.043-.033a7.662,7.662,0,0,1,9.051-.332l-34.878,34.2a27.711,27.711,0,0,1-16.134,5.282H591.1l-30.655-2.3a13.018,13.018,0,0,0-9.293,2.941l-2.631,2.124-4.364-24.948a26.8,26.8,0,0,1,26.5-6.967Zm0,0" transform="translate(-519.462 -310.989)"/></g></g><path d="M711.275,294.741a2.115,2.115,0,1,0,0-4.23H695.9a2.115,2.115,0,0,0,0,4.23h4.4a4.573,4.573,0,0,1,3.948,2.467H695.9a2.115,2.115,0,0,0,0,4.23h8.354a4.6,4.6,0,0,1-.787.932,4.334,4.334,0,0,1-3.167,1.183h-4.4a2.172,2.172,0,0,0-1.453,3.729l10.994,10.4a2.111,2.111,0,0,0,2.906-3.062l-7.175-6.78a8.536,8.536,0,0,0,5.288-2.433,8.963,8.963,0,0,0,2.293-3.971h2.524a2.115,2.115,0,0,0,0-4.23h-2.526a6.963,6.963,0,0,0-.983-2.467Zm0,0" transform="translate(-625.379 -229.533)"/><path d="M604.5,256.384c0,.087,0,.171,0,.258a44.825,44.825,0,0,0,44.279,44.57c.184.007.368.007.552.007a44.841,44.841,0,0,0,44.83-44.576c0-.085,0-.237,0-.322a44.727,44.727,0,0,0-44.834-44.836c-.184,0-.368.033-.551.04A44.86,44.86,0,0,0,604.5,256.384Zm11.031,2.323a33.6,33.6,0,0,0,8.365,20.061l-4.759,4.762A40.259,40.259,0,0,1,608.8,258.707Zm11.357,23.051a33.619,33.619,0,0,0,19.838,8.4V296.9a40.266,40.266,0,0,1-24.6-10.381Zm24.068,8.469a33.62,33.62,0,0,0,20.6-8.265l4.762,4.761a40.288,40.288,0,0,1-25.359,10.23Zm19.172-12.7a29.466,29.466,0,0,1-20.793,8.514c-.132,0-.266,0-.4,0h-.06a29.641,29.641,0,0,1-29.194-29.458c0-.026,0-.071,0-.1s0-.062,0-.093a29.656,29.656,0,0,1,29.194-29.65c.019,0,.039-.05.058-.05.111-.005.221-.053.332-.053h.07a29.783,29.783,0,0,1,21.008,8.75,29.335,29.335,0,0,1,8.681,21c0,.032-.016.062-.018.095s-.011.066-.011.1a29.431,29.431,0,0,1-8.867,20.943Zm1.589-46.579a33.593,33.593,0,0,0-20.761-8.409v-6.721a40.275,40.275,0,0,1,25.52,10.37ZM646.729,222.6a33.6,33.6,0,0,0-20,8.549l-4.757-4.759a40.24,40.24,0,0,1,24.761-10.525Zm-22.971,11.563a33.6,33.6,0,0,0-8.25,20.313h-6.729A40.279,40.279,0,0,1,619,229.4Zm55.57,49.589L674.569,279a33.537,33.537,0,0,0,8.572-20.288h6.736a40.2,40.2,0,0,1-10.549,25.047ZM689.9,254.477h-6.732a33.58,33.58,0,0,0-8.453-20.547l4.759-4.759A40.27,40.27,0,0,1,689.9,254.477Zm0,0" transform="translate(-571.13 -181.515)"/><path d="M716.348,158.016v-20.8a2.115,2.115,0,0,0-4.23,0v20.8a2.115,2.115,0,0,0,4.23,0Zm0,0" transform="translate(-636.519 -135.105)"/><path d="M751.384,168.387v-14.1a2.115,2.115,0,1,0-4.23,0v14.1a2.115,2.115,0,1,0,4.23,0Zm0,0" transform="translate(-657.807 -145.477)"/><path d="M682.214,168.387v-14.1a2.115,2.115,0,1,0-4.23,0v14.1a2.115,2.115,0,1,0,4.23,0Zm0,0" transform="translate(-615.778 -145.477)"/><path d="M776.535,182.281V171.354a2.115,2.115,0,1,0-4.23,0v10.927a2.115,2.115,0,1,0,4.23,0Zm0,0" transform="translate(-673.09 -155.846)"/><path d="M656.164,182.281V171.354a2.114,2.114,0,1,0-4.229,0v10.927a2.114,2.114,0,1,0,4.229,0Zm0,0" transform="translate(-599.95 -155.846)"/></g></g></svg>