<svg xmlns="http://www.w3.org/2000/svg" xmlns:xlink="http://www.w3.org/1999/xlink" width="144" height="174" viewBox="0 0 144 174"><defs><style>.a{fill:none;}.b{fill:#39927e;isolation:isolate;}.c{fill:#f5be9a;}.d{clip-path:url(#a);}</style><clipPath id="a"><rect class="a" width="136.547" height="121.244"/></clipPath></defs><g transform="translate(-0.468 -0.431)"><rect class="a" width="144" height="174" transform="translate(0.468 0.431)"/><g transform="translate(4.227 52.835)"><path class="b" d="M1079.454,256.992l31.675,54.864-28.544,16.48L1050.8,273.287Zm0,0" transform="translate(-1048.448 -247.006)"/><path class="c" d="M1127.888,268.148h-9.417l-12.664,12.663a4.994,4.994,0,0,1-7.063-7.063l5.6-5.6h-16.48a7.063,7.063,0,0,1-7.063-7.063v-16.48a7.063,7.063,0,0,1,7.063-7.063h13.554a24.117,24.117,0,0,1,17.052,7.063h9.417Zm0,0" transform="translate(-1066.677 -235.189)"/><rect class="b" width="63.565" height="32.96" transform="translate(58.856 4.709)"/><path class="c" d="M1265.591,307.468l4.8-8.323-4.635-17.3a4.995,4.995,0,0,1,9.649-2.586l2.049,7.651,8.24-14.273a7.064,7.064,0,0,1,9.649-2.585l14.273,8.24a7.061,7.061,0,0,1,2.585,9.647l-6.778,11.739a24.118,24.118,0,0,1-14.641,11.236l-4.76,8.241Zm0,0" transform="translate(-1178.958 -254.368)"/><path class="b" d="M1177.384,410.336l31.807-55.09,28.544,16.48-31.782,55.049Zm0,0" transform="translate(-1125.362 -306.708)"/><g class="d"><path class="c" d="M1162.581,402.816l3.531,6.117,17.3,4.635a4.994,4.994,0,0,1-2.586,9.647l-7.651-2.049,8.24,14.273a7.064,7.064,0,0,1-2.583,9.647l-14.273,8.24a7.064,7.064,0,0,1-9.649-2.586L1148.134,439a24.11,24.11,0,0,1-2.409-18.3l-3.531-6.117Zm0,0" transform="translate(-1103.979 -335.613)"/><path d="M1084.22,266.857h10.8l-1.582,1.582a7.348,7.348,0,0,0,10.392,10.392l11.974-11.974h3.734v2.354a2.355,2.355,0,0,0,2.354,2.354h23.542v-4.709h-21.188V238.606h61.211V233.9h-63.565a2.355,2.355,0,0,0-2.354,2.354v2.354h-3.759a26.285,26.285,0,0,0-18-7.063H1084.22a9.427,9.427,0,0,0-9.417,9.417v16.48a9.427,9.427,0,0,0,9.417,9.417Zm-4.708-25.9a4.714,4.714,0,0,1,4.708-4.709h13.554a21.621,21.621,0,0,1,15.387,6.373,2.355,2.355,0,0,0,1.665.69h4.708v18.834h-4.708a2.355,2.355,0,0,0-1.665.69L1100.5,275.5a2.64,2.64,0,0,1-3.734-3.733l5.6-5.6a2.354,2.354,0,0,0-1.664-4.019h-16.48a4.714,4.714,0,0,1-4.708-4.708Zm0,0" transform="translate(-1063.031 -231.543)"/></g><rect width="4.709" height="4.709" transform="translate(65.919 11.771)"/><path d="M1124.768,369.064l-5.4-9.35,2.16.58a7.349,7.349,0,1,0,3.8-14.2l-16.356-4.382-1.867-3.234,2.039-1.177a2.353,2.353,0,0,0,.861-3.216l-11.984-20.758-4.077,2.354,10.807,18.719-24.467,14.126-30.6-53.01-4.077,2.354,31.782,55.048a2.354,2.354,0,0,0,3.216.863l2.038-1.177,1.879,3.256a26.285,26.285,0,0,0,2.885,19.12l6.777,11.738a9.349,9.349,0,0,0,5.717,4.388,9.466,9.466,0,0,0,2.454.323,9.368,9.368,0,0,0,4.693-1.265l14.273-8.24a9.431,9.431,0,0,0,3.446-12.864Zm-5.8,8.787-14.273,8.24a4.709,4.709,0,0,1-6.431-1.724l-6.778-11.738a21.618,21.618,0,0,1-2.173-16.512,2.361,2.361,0,0,0-.235-1.786l-2.354-4.078,16.31-9.417,2.354,4.078a2.354,2.354,0,0,0,1.43,1.1l17.3,4.635a2.64,2.64,0,1,1-1.366,5.1L1115.1,353.7a2.355,2.355,0,0,0-2.649,3.452l8.24,14.273a4.714,4.714,0,0,1-1.721,6.431Zm0,0" transform="translate(-1045.291 -270.417)"/><g class="d"><path d="M1132.388,400.182l4.077-2.354,2.354,4.079-4.077,2.354Zm0,0" transform="translate(-1098.021 -332.582)"/><path d="M1284.943,272.614l-14.273-8.24a9.429,9.429,0,0,0-12.865,3.447l-5.4,9.35-.578-2.16a7.348,7.348,0,0,0-14.2,3.8l4.382,16.356-1.867,3.234-2.038-1.177a2.353,2.353,0,0,0-3.216.861l-11.854,20.529,4.079,2.354,10.675-18.491,24.466,14.126-30.606,53.011,4.079,2.354,31.782-55.049a2.355,2.355,0,0,0-.862-3.216l-2.04-1.177,1.881-3.256a26.276,26.276,0,0,0,15.116-12.058l6.778-11.738a9.428,9.428,0,0,0-3.445-12.864Zm-.63,10.51-6.778,11.738A21.614,21.614,0,0,1,1264.321,305a2.35,2.35,0,0,0-1.43,1.1l-2.354,4.077-16.311-9.417,2.354-4.077a2.36,2.36,0,0,0,.236-1.787l-4.635-17.3a2.64,2.64,0,1,1,5.1-1.367l2.051,7.65a2.354,2.354,0,0,0,4.313.567l8.24-14.273a4.712,4.712,0,0,1,6.432-1.723l14.273,8.24a4.713,4.713,0,0,1,1.723,6.433Zm0,0" transform="translate(-1153.104 -250.727)"/></g><path d="M1290.2,401.921l2.354-4.077,4.079,2.354-2.354,4.077Zm0,0" transform="translate(-1193.914 -332.591)"/></g></g></svg>